<?xml version="1.0" encoding="UTF-8"?>
<svg version="1.1" xmlns="http://www.w3.org/2000/svg" width="880" height="880">
<path d="M0 0 C5.95498026 0.55183218 11.90908942 0.89227629 17.8828125 1.16015625 C20.6484375 1.50390625 20.6484375 1.50390625 23.6484375 3.50390625 C25.17284292 3.96874267 26.71689719 4.37100767 28.26953125 4.73046875 C29.65700562 5.06437622 29.65700562 5.06437622 31.07250977 5.4050293 C32.56415649 5.76334839 32.56415649 5.76334839 34.0859375 6.12890625 C60.24809773 12.7292356 84.83233665 24.66518325 106.6484375 40.50390625 C107.5751123 41.17607178 107.5751123 41.17607178 108.52050781 41.86181641 C131.69032726 58.90141932 152.11453081 80.5752221 167.47729492 104.88256836 C168.48583336 106.45520101 169.56113619 107.98466332 170.6484375 109.50390625 C171.3084375 109.50390625 171.9684375 109.50390625 172.6484375 109.50390625 C172.73480469 110.19742188 172.82117188 110.8909375 172.91015625 111.60546875 C173.82764332 115.20745503 175.45878844 117.75124483 177.4609375 120.87890625 C178.18678898 122.02957528 178.91205502 123.18061383 179.63671875 124.33203125 C180.63251953 125.90210938 180.63251953 125.90210938 181.6484375 127.50390625 C185.6484375 133.98324509 185.6484375 133.98324509 185.6484375 137.50390625 C186.6384375 137.50390625 187.6284375 137.50390625 188.6484375 137.50390625 C188.885625 136.85164062 189.1228125 136.199375 189.3671875 135.52734375 C196.04535654 119.76849364 206.20101473 104.97558298 216.6484375 91.50390625 C216.3184375 90.84390625 215.9884375 90.18390625 215.6484375 89.50390625 C216.38320313 89.11589844 217.11796875 88.72789062 217.875 88.328125 C220.95439011 86.302667 222.75892797 84.21448794 225.0234375 81.31640625 C225.79558594 80.34703125 226.56773437 79.37765625 227.36328125 78.37890625 C228.49443359 76.95578125 228.49443359 76.95578125 229.6484375 75.50390625 C230.94850451 73.93104635 232.25952739 72.36711535 233.5859375 70.81640625 C234.40384766 69.85154297 234.40384766 69.85154297 235.23828125 68.8671875 C236.6484375 67.50390625 236.6484375 67.50390625 238.6484375 67.50390625 C238.9165625 66.86453125 239.1846875 66.22515625 239.4609375 65.56640625 C240.6484375 63.50390625 240.6484375 63.50390625 243.6484375 62.50390625 C243.6484375 61.84390625 243.6484375 61.18390625 243.6484375 60.50390625 C252.13791103 51.4607714 263.52831927 43.77067505 273.7578125 36.84375 C275.7599622 35.50442852 275.7599622 35.50442852 277.6484375 33.50390625 C322.87911144 6.58268994 372.5725236 -5.53271207 424.96533203 0.22558594 C427.79324238 0.51892696 430.62234378 0.73215886 433.45703125 0.94921875 C437.48491453 1.31222551 440.84575153 2.07727109 444.6484375 3.50390625 C446.24475056 3.95055388 447.8455942 4.38114118 449.44921875 4.80078125 C486.52787804 14.55779065 519.46873453 30.3011517 548.6484375 55.50390625 C549.85306641 56.54224609 549.85306641 56.54224609 551.08203125 57.6015625 C562.83838917 67.96596764 573.30630597 78.92565754 582.6484375 91.50390625 C583.06689941 92.05626953 583.48536133 92.60863281 583.91650391 93.17773438 C593.83669547 106.29112065 602.3829524 120.42375056 608.54370117 135.69287109 C609.79723944 139.26890668 609.79723944 139.26890668 612.6484375 141.50390625 C612.87988383 143.13045965 613.10416211 144.75831134 613.29492188 146.39013672 C613.97060925 150.43026193 615.52639668 154.21926887 616.8984375 158.06640625 C619.49799408 165.61335482 621.69847521 173.15538179 623.4609375 180.94140625 C623.75242676 182.21576538 623.75242676 182.21576538 624.04980469 183.51586914 C626.65690873 195.46433233 627.96269713 207.26731625 628.01953125 219.4921875 C628.03055374 220.78249374 628.04157623 222.07279999 628.05293274 223.40220642 C628.08317531 227.54030764 628.08626594 231.67821219 628.0859375 235.81640625 C628.08684891 236.51976608 628.08776031 237.22312592 628.08869934 237.94779968 C628.11381052 259.5608252 627.18876204 280.30072908 622.6484375 301.50390625 C622.33871457 303.20956792 622.03594471 304.91651625 621.7421875 306.625 C615.26841871 342.77588784 600.43580568 377.96247959 583.70507812 410.44824219 C582.97777851 411.86318275 582.25539838 413.28065931 581.53710938 414.70019531 C572.22492456 433.0960934 561.32476948 450.52217715 549.6484375 467.50390625 C549.19678223 468.16277832 548.74512695 468.82165039 548.27978516 469.50048828 C540.98554029 480.10052393 533.26614322 490.31710793 525.29296875 500.4140625 C523.77567917 502.34220959 522.27161425 504.27964271 520.7734375 506.22265625 C515.50071194 513.04183306 510.02234221 519.63083482 504.33911133 526.11230469 C501.23084653 529.65959515 498.21248225 533.25102675 495.2734375 536.94140625 C489.74278022 543.76625756 483.65116817 550.0637464 477.60791016 556.43115234 C473.87086471 560.38424427 470.17610748 564.37705666 466.47973633 568.36816406 C463.76689832 571.28431089 461.01781368 574.14283066 458.1796875 576.9375 C455.84508306 579.25200879 453.65111508 581.62289143 451.51953125 584.125 C446.77019588 589.62416071 441.59591412 594.70567429 436.45141602 599.83129883 C434.7145015 601.56285325 432.98299861 603.29968984 431.25195312 605.03710938 C426.11513747 610.17664141 420.96772863 615.21544597 415.43432617 619.93188477 C411.54733179 623.35339629 408.00694241 627.14793733 404.41015625 630.86914062 C403.82105469 631.46919922 403.23195313 632.06925781 402.625 632.6875 C402.09986816 633.22947021 401.57473633 633.77144043 401.03369141 634.32983398 C399.6484375 635.50390625 399.6484375 635.50390625 397.6484375 635.50390625 C397.6484375 636.16390625 397.6484375 636.82390625 397.6484375 637.50390625 C396.18847656 638.95800781 396.18847656 638.95800781 394.1640625 640.64453125 C389.77231344 644.37964236 385.5793237 648.28576318 381.3984375 652.25390625 C372.60128684 660.56654549 363.77997509 668.84489432 354.62890625 676.76953125 C352.33710595 678.77655163 350.08846998 680.82793476 347.8359375 682.87890625 C344.43760198 685.95137398 340.97253227 688.88833247 337.3984375 691.75390625 C332.96911557 695.33239797 328.79138832 699.1038646 324.6484375 703.00390625 C319.66894694 707.69143971 314.56663803 712.11622513 309.2265625 716.39453125 C306.6241746 718.52375771 304.13268248 720.73839982 301.6484375 723.00390625 C297.4476426 726.82880584 293.10462281 730.4250677 288.6875 733.99609375 C285.17786599 736.89221847 281.75808368 739.88052949 278.3359375 742.87890625 C272.94528271 747.59171066 267.43946047 752.09753527 261.77807617 756.47998047 C257.81390543 759.55806877 253.95942453 762.73850183 250.1484375 766.00390625 C245.16509105 770.2720993 240.06239773 774.35206229 234.88110352 778.37670898 C230.8634703 781.51156636 226.95442981 784.74980483 223.0859375 788.06640625 C217.83436303 792.56060323 212.44906615 796.83104193 206.93359375 800.99609375 C204.61334752 802.75078433 202.33951076 804.55201809 200.08203125 806.38671875 C199.49679687 806.85585693 198.9115625 807.32499512 198.30859375 807.80834961 C197.18467305 808.71070374 196.06833652 809.6226108 194.9609375 810.54516602 C193.42578125 811.765625 193.42578125 811.765625 190.6484375 813.50390625 C187.48049849 813.12702595 185.5147846 811.88513962 183.03125 809.94921875 C182.00789551 809.15898315 182.00789551 809.15898315 180.96386719 808.3527832 C180.24102539 807.78390381 179.51818359 807.21502441 178.7734375 806.62890625 C178.0196582 806.04391357 177.26587891 805.4589209 176.48925781 804.85620117 C174.20336163 803.07916494 171.92490917 801.29299369 169.6484375 799.50390625 C169.00422852 798.99907715 168.36001953 798.49424805 167.69628906 797.97412109 C164.79384608 795.69963293 161.89554966 793.41997334 159 791.13671875 C146.39218266 780.40807988 146.39218266 780.40807988 132.6484375 771.50390625 C130.97737138 769.84165068 129.31159171 768.17407799 127.6484375 766.50390625 C125.53909988 764.58582445 123.37939722 762.72967989 121.2109375 760.87890625 C120.60475586 760.35965576 119.99857422 759.84040527 119.37402344 759.30541992 C114.56161212 755.21338116 109.61899755 751.31123128 104.62597656 747.44335938 C100.27067306 744.04853172 96.16439705 740.44439965 92.09765625 736.70703125 C85.64261204 730.90058 78.87720371 725.32308372 71.6484375 720.50390625 C71.02066406 719.71371094 70.39289063 718.92351563 69.74609375 718.109375 C67.68881548 715.55405916 65.6890309 713.79338492 63.0859375 711.81640625 C58.11381794 707.94509771 53.50763369 703.79619816 48.8984375 699.5078125 C46.81928535 697.48061808 46.81928535 697.48061808 44.6484375 696.50390625 C44.6484375 695.84390625 44.6484375 695.18390625 44.6484375 694.50390625 C43.83052734 694.16552734 43.83052734 694.16552734 42.99609375 693.8203125 C39.9503699 692.11247733 37.59517657 689.83340638 35.0859375 687.44140625 C31.29580358 683.89147582 27.4681219 680.4862577 23.3984375 677.25390625 C17.8292227 672.7759019 12.65660371 667.92007059 7.48144531 662.99511719 C3.60069516 659.30596074 -0.35029266 655.72859795 -4.39379883 652.21875 C-7.52080797 649.47974112 -10.56468646 646.65459674 -13.6015625 643.81640625 C-14.56002075 642.92272339 -14.56002075 642.92272339 -15.5378418 642.01098633 C-20.3560566 637.49432129 -25.0578442 632.8736192 -29.67089844 628.14770508 C-32.25007191 625.4843502 -32.25007191 625.4843502 -35.3515625 623.50390625 C-35.3515625 622.84390625 -35.3515625 622.18390625 -35.3515625 621.50390625 C-35.93632858 621.24412994 -36.52109467 620.98435364 -37.12358093 620.71670532 C-39.5096429 619.41785538 -41.08373147 618.01913546 -42.99926758 616.09912109 C-43.69711868 615.40434662 -44.39496979 614.70957214 -45.1139679 613.9937439 C-46.23124519 612.86568832 -46.23124519 612.86568832 -47.37109375 611.71484375 C-48.14788986 610.93758942 -48.92468597 610.16033508 -49.72502136 609.35952759 C-51.36893883 607.71258952 -53.01042563 606.0632222 -54.6496582 604.41162109 C-57.13903343 601.90411759 -59.63618825 599.40458065 -62.13476562 596.90625 C-63.73484511 595.30124978 -65.33446898 593.69579519 -66.93359375 592.08984375 C-68.04176201 590.98000626 -68.04176201 590.98000626 -69.1723175 589.8477478 C-73.21877808 585.76478851 -77.08831507 581.58556199 -80.8433075 577.23330688 C-82.58195098 575.23973741 -84.40030682 573.35546543 -86.2890625 571.50390625 C-86.95679688 570.84390625 -87.62453125 570.18390625 -88.3125 569.50390625 C-88.98539063 568.84390625 -89.65828125 568.18390625 -90.3515625 567.50390625 C-95.598045 562.35793108 -100.56898372 557.0838327 -105.3515625 551.50390625 C-106.78660424 549.87673495 -108.22357517 548.25125871 -109.6640625 546.62890625 C-110.32019531 545.88898437 -110.97632813 545.1490625 -111.65234375 544.38671875 C-112.85002659 543.0596311 -114.08752021 541.76794854 -115.3515625 540.50390625 C-119.55564251 535.68459502 -123.61640668 530.75814831 -127.65625 525.80078125 C-129.69375693 523.30339326 -131.74324181 520.8161743 -133.796875 518.33203125 C-134.40031738 517.60161621 -135.00375977 516.87120117 -135.62548828 516.11865234 C-136.8547557 514.63127444 -138.08489252 513.14461461 -139.31591797 511.65869141 C-142.99838311 507.19885053 -146.56723854 502.68728046 -149.921875 497.97265625 C-151.64795435 496.19941626 -152.93862508 495.87672062 -155.3515625 495.50390625 C-154.6915625 494.84390625 -154.0315625 494.18390625 -153.3515625 493.50390625 C-154.10179687 492.52292969 -154.85203125 491.54195312 -155.625 490.53125 C-162.09703819 482.01714649 -168.24587761 473.3749962 -174.08984375 464.41992188 C-175.44099377 462.36809809 -176.81534951 460.33332837 -178.1953125 458.30078125 C-178.66050293 457.61314697 -179.12569336 456.9255127 -179.60498047 456.21704102 C-180.50187177 454.89245805 -181.40181608 453.56993588 -182.30517578 452.24975586 C-185.3515625 447.72810199 -185.3515625 447.72810199 -185.3515625 445.50390625 C-186.0115625 445.17390625 -186.6715625 444.84390625 -187.3515625 444.50390625 C-188.36561507 443.18122898 -189.36424508 441.84665794 -190.3515625 440.50390625 C-191.33321844 439.48589268 -192.32747682 438.47922595 -193.3515625 437.50390625 C-192.6915625 437.50390625 -192.0315625 437.50390625 -191.3515625 437.50390625 C-192.27983589 435.70744189 -193.21952088 433.91687068 -194.1640625 432.12890625 C-194.68613281 431.13117188 -195.20820313 430.1334375 -195.74609375 429.10546875 C-197.24320934 426.27514508 -197.24320934 426.27514508 -200.3515625 424.50390625 C-200.3515625 423.51390625 -200.3515625 422.52390625 -200.3515625 421.50390625 C-201.53025105 419.17089481 -202.75896923 416.90547442 -204.0390625 414.62890625 C-214.47253544 395.46859821 -223.07177144 375.05271405 -230.3515625 354.50390625 C-230.64144043 353.68792969 -230.93131836 352.87195313 -231.22998047 352.03125 C-234.19623848 343.60487385 -236.92494279 335.34894847 -238.3515625 326.50390625 C-239.3415625 326.50390625 -240.3315625 326.50390625 -241.3515625 326.50390625 C-242.44815186 323.21413817 -242.15109388 321.79086858 -241.3515625 318.50390625 C-242.0115625 318.50390625 -242.6715625 318.50390625 -243.3515625 318.50390625 C-243.28001953 316.67085938 -243.28001953 316.67085938 -243.20703125 314.80078125 C-243.21063655 308.63331816 -244.47571809 302.78440538 -245.6640625 296.75390625 C-249.88848821 273.83051492 -251.61687525 251.52723011 -251.6015625 228.25390625 C-251.60096832 227.23072296 -251.60037415 226.20753967 -251.59976196 225.15335083 C-251.59329467 222.2440328 -251.57689517 219.33501832 -251.5546875 216.42578125 C-251.5502916 215.53867966 -251.54589569 214.65157806 -251.54136658 213.7375946 C-251.46978564 207.62212939 -251.46978564 207.62212939 -250.3515625 206.50390625 C-250.04229624 204.97563428 -249.78691261 203.43639128 -249.5546875 201.89453125 C-249.40362549 200.92330322 -249.25256348 199.9520752 -249.09692383 198.95141602 C-248.93345459 197.89623779 -248.76998535 196.84105957 -248.6015625 195.75390625 C-244.43797191 170.19055918 -237.88833948 145.21587217 -225.36523438 122.35449219 C-224.31523655 120.43758864 -223.29435745 118.50674227 -222.2734375 116.57421875 C-207.70352227 89.42586409 -186.73504715 65.06796846 -161.97509766 46.73046875 C-160.39684196 45.53811437 -158.86338271 44.2871797 -157.33203125 43.03515625 C-135.04358242 24.95261496 -96.85085224 3.50390625 -67.3515625 3.50390625 C-67.0215625 2.84390625 -66.6915625 2.18390625 -66.3515625 1.50390625 C-64.28271484 1.12719727 -64.28271484 1.12719727 -61.5625 0.9453125 C-60.56444336 0.87199707 -59.56638672 0.79868164 -58.53808594 0.72314453 C-57.4865332 0.6507959 -56.43498047 0.57844727 -55.3515625 0.50390625 C-53.32263134 0.32879599 -51.29398124 0.15039869 -49.265625 -0.03125 C-32.52280311 -1.45695455 -16.72667615 -1.56993338 0 0 Z M-240.3515625 322.50390625 C-239.3515625 325.50390625 -239.3515625 325.50390625 -239.3515625 325.50390625 Z " fill="#F65894" transform="translate(252.3515625,39.49609375)"/>
<path d="M0 0 C19.47 0 38.94 0 59 0 C59 23.1 59 46.2 59 70 C79.79 69.67 100.58 69.34 122 69 C113.8929173 60.8929173 105.94333744 53.59942867 96.74609375 46.875 C96.01342285 46.33665527 95.28075195 45.79831055 94.52587891 45.24365234 C93.06759633 44.1772048 91.60252827 43.11996529 90.13037109 42.07275391 C89.13191162 41.34451416 89.13191162 41.34451416 88.11328125 40.6015625 C87.51298096 40.17182129 86.91268066 39.74208008 86.29418945 39.29931641 C85 38 85 38 85 35 C86.9151824 33.16886949 88.81227881 31.52414731 90.875 29.875 C92.07651048 28.88661849 93.27702128 27.89702056 94.4765625 26.90625 C95.3742334 26.16955078 95.3742334 26.16955078 96.29003906 25.41796875 C103.59178122 19.36306892 110.36973168 12.77440459 117 6 C124.94655313 10.12912969 132.30311957 15.08622757 139.6875 20.125 C140.30905975 20.54796356 140.93061951 20.97092712 141.5710144 21.40670776 C154.83925751 30.44786212 167.29571412 39.98841675 179 51 C177.61285223 55.16144331 174.62830018 56.88325887 171.25 59.4375 C170.00511435 60.39440899 168.7603211 61.35143821 167.515625 62.30859375 C166.96165039 62.72939209 166.40767578 63.15019043 165.83691406 63.58374023 C163.5343709 65.35899979 161.27033514 67.18373189 159 69 C185.73 69.33 212.46 69.66 240 70 C240 87.49 240 104.98 240 123 C180.27 123 120.54 123 59 123 C58.7415216 155.73988705 58.7415216 155.73988705 66.625 186.9375 C66.96402344 187.76233887 67.30304688 188.58717773 67.65234375 189.43701172 C70.75220402 196.79917986 74.43597988 203.81149728 78.3125 210.7890625 C80 214 80 214 80 216 C89.78740416 207.82463888 98.76692371 198.72999925 107 189 C107.89997941 187.96261915 108.80112757 186.92625167 109.703125 185.890625 C124.06611493 169.35384051 137.34637113 151.87385219 150 134 C156.50000858 137.43153081 162.51939058 141.29725457 168.5 145.5625 C170.24603159 146.79956691 171.99212656 148.03654436 173.73828125 149.2734375 C174.61049316 149.8931543 175.48270508 150.51287109 176.38134766 151.15136719 C178.92264938 152.94539447 181.47914636 154.71491148 184.04296875 156.4765625 C184.82671875 157.01853271 185.61046875 157.56050293 186.41796875 158.11889648 C187.90238238 159.14486008 189.39053422 160.1654413 190.8828125 161.17993164 C195.88733341 164.66200022 195.88733341 164.66200022 197 168 C195.33598308 170.59319425 193.64278773 172.95687867 191.75 175.375 C191.20150391 176.08962402 190.65300781 176.80424805 190.08789062 177.54052734 C185.37557341 183.63156338 180.46290327 189.53599498 175.41943359 195.35400391 C173.90949147 197.10495502 172.41644388 198.8693323 170.92578125 200.63671875 C165.96332947 206.50475008 160.99875371 212.23928218 155.42578125 217.546875 C153.89073009 218.96253702 153.89073009 218.96253702 153 221 C152.34 221 151.68 221 151 221 C150.74476563 221.58136719 150.48953125 222.16273438 150.2265625 222.76171875 C146.87191857 228.88340975 140.50463757 233.51824339 135.26171875 238.01953125 C133.00881945 239.99227727 130.81060498 242.01770457 128.6171875 244.05615234 C123.28773406 249.00564789 117.85426905 253.66843224 112 258 C118.72226864 268.67654432 126.88839148 278.0183223 135.453125 287.23046875 C137.49064824 289.44611902 139.44482414 291.69238877 141.375 294 C145.95127872 299.27695297 151.21561485 303.85965163 156.390625 308.53466797 C157.83764056 309.85217213 159.2639652 311.19231601 160.6875 312.53515625 C181.51529503 332.06121409 206.53138928 347.47875913 231 362 C229.31483038 365.89103772 226.75428253 369.02945489 224.125 372.3125 C223.3990564 373.22793579 223.3990564 373.22793579 222.65844727 374.16186523 C220.10152441 377.38170921 217.52885898 380.58893252 214.95703125 383.796875 C214.45800293 384.41957275 213.95897461 385.04227051 213.44482422 385.68383789 C212.44152951 386.93429995 211.4366501 388.18349222 210.43017578 389.43139648 C207.95070021 392.51557286 205.51715516 395.62174512 203.16015625 398.80078125 C202.71099854 399.40269287 202.26184082 400.00460449 201.79907227 400.62475586 C200.57629586 402.27220635 199.36584861 403.9287874 198.15625 405.5859375 C195.90092064 408.11092581 195.25549417 408.67017507 192 409 C190.26757812 408.15478516 190.26757812 408.15478516 188.53125 406.7890625 C187.88414062 406.29092041 187.23703125 405.79277832 186.5703125 405.27954102 C185.88710938 404.73354248 185.20390625 404.18754395 184.5 403.625 C183.05222848 402.50111509 181.60431077 401.37741846 180.15625 400.25390625 C179.44597656 399.69590332 178.73570312 399.13790039 178.00390625 398.56298828 C175.37340279 396.5112725 172.68807826 394.53794213 170 392.5625 C158.31642807 383.78000496 147.17988533 374.48771546 136.55566406 364.45410156 C134.97775925 362.97921125 133.38005341 361.52946491 131.7734375 360.0859375 C126.7411973 355.55978011 121.92399582 351.01401308 117.56640625 345.81640625 C116.00058084 344.00067355 114.3509788 342.35057296 112.625 340.6875 C108.0068237 336.13103653 104.02395116 331.07941376 100 326 C99.19304687 324.98679687 98.38609375 323.97359375 97.5546875 322.9296875 C83.34175001 304.89234039 67.30598236 282.91794707 60 261 C59.99668985 261.56854486 59.99337971 262.13708971 59.98996925 262.7228632 C59.90838261 276.62296905 59.81605756 290.52296891 59.71247292 304.42292881 C59.6625704 311.1451298 59.6161271 317.86731994 59.578125 324.58959961 C59.54103612 331.08656922 59.49461437 337.58341334 59.44193649 344.08027458 C59.42351721 346.54913044 59.40836417 349.01801306 59.39665604 351.48690987 C59.27700209 375.86351642 59.09787797 399.89151853 41.44921875 418.70703125 C24.6977885 434.38978971 -1.56393801 435.19553008 -23.203125 435.09765625 C-25.00882965 435.09553383 -25.00882965 435.09553383 -26.85101318 435.09336853 C-30.65070203 435.08782463 -34.45032932 435.07528295 -38.25 435.0625 C-40.84505123 435.05747774 -43.44010338 435.05291611 -46.03515625 435.04882812 C-52.35679141 435.03787365 -58.67839131 435.02119249 -65 435 C-65.19980469 434.16198853 -65.39960938 433.32397705 -65.60546875 432.46057129 C-66.44263149 428.95223611 -67.28393064 425.44490061 -68.125 421.9375 C-68.40859375 420.74705078 -68.6921875 419.55660156 -68.984375 418.33007812 C-71.82362225 406.5101684 -74.90505588 394.75520893 -78 383 C-77.2955777 382.99413376 -76.5911554 382.98826752 -75.86538696 382.98222351 C-69.18716185 382.92402598 -62.50924761 382.85179761 -55.83133888 382.76428509 C-52.39913969 382.71978897 -48.96705354 382.68048915 -45.53466797 382.65356445 C-41.57754927 382.62228573 -37.62091431 382.56750658 -33.6640625 382.51171875 C-31.83846298 382.50213387 -31.83846298 382.50213387 -29.97598267 382.49235535 C-21.79020557 382.35272778 -13.44831651 381.77089311 -6.5625 376.875 C-0.93208932 370.55795387 -0.55815236 362.8730783 -0.60127258 354.73045349 C-0.59462576 353.734544 -0.58797893 352.7386345 -0.58113068 351.71254593 C-0.56257016 348.39606747 -0.56510134 345.079952 -0.56762695 341.76342773 C-0.55860558 339.37788893 -0.54827744 336.99235476 -0.53674316 334.60682678 C-0.5120481 328.8147665 -0.5009277 323.02279607 -0.49586574 317.23068797 C-0.48923446 310.48726327 -0.46575403 303.74392853 -0.44127061 297.00054885 C-0.39805747 284.97621319 -0.36805952 272.95188268 -0.34643555 260.92749023 C-0.32540942 249.25135765 -0.2980861 237.57526743 -0.26245117 225.89916992 C-0.26023766 225.17134617 -0.25802415 224.44352241 -0.25574356 223.69364339 C-0.23643281 217.36198786 -0.21664701 211.03033384 -0.19681454 204.69867992 C-0.11212896 177.46580919 -0.05862639 150.23296817 0 123 C-71.61 123 -143.22 123 -217 123 C-217 105.51 -217 88.02 -217 70 C-145.39 70 -73.78 70 0 70 C0 46.9 0 23.8 0 0 Z " fill="#FEFCFC" transform="translate(428,205)"/>
<path d="M0 0 C2.20438136 4.34714957 4.38267931 8.70667943 6.54736328 13.07373047 C7.61805766 15.23059481 8.69251049 17.3855944 9.76904297 19.53955078 C11.38758719 22.77989948 12.99208495 26.02694696 14.58953857 29.27774048 C15.2378819 30.59197685 15.89043198 31.90414635 16.54718018 33.21420288 C17.48156402 35.08016914 18.4005066 36.95303151 19.31640625 38.828125 C19.85724854 39.9202832 20.39809082 41.01244141 20.95532227 42.13769531 C22 45 22 45 21.84814453 47.21923828 C20.28273483 50.5059678 17.14296082 52.45728463 14.3125 54.625 C13.63622559 55.15351563 12.95995117 55.68203125 12.26318359 56.2265625 C6.88863703 60.39493606 1.40922606 64.40872549 -4.16381836 68.30688477 C-6.69544373 70.08111748 -9.2198462 71.86485815 -11.73779297 73.65844727 C-22.44873841 81.2776243 -33.30604212 88.65778748 -44.25 95.9375 C-45.10339966 96.5058255 -45.95679932 97.074151 -46.83605957 97.65969849 C-64.74077342 109.57475259 -82.87242852 120.93868041 -101.55371094 131.60107422 C-104.12589374 133.07199312 -106.69216257 134.55287482 -109.2578125 136.03515625 C-117.66364536 140.88261672 -126.09722138 145.68229083 -134.625 150.3125 C-135.32963379 150.7038916 -136.03426758 151.0952832 -136.76025391 151.49853516 C-138.46668731 152.41171221 -140.23027078 153.21650413 -142 154 C-145 153 -145 153 -146.14404297 151.20361328 C-146.50643066 150.41712402 -146.86881836 149.63063477 -147.2421875 148.8203125 C-147.66274414 147.92352783 -148.08330078 147.02674316 -148.51660156 146.1027832 C-148.96487305 145.12011475 -149.41314453 144.13744629 -149.875 143.125 C-150.84514111 141.03719632 -151.81655147 138.94998207 -152.7890625 136.86328125 C-153.5610498 135.19966553 -153.5610498 135.19966553 -154.34863281 133.50244141 C-156.07196281 129.84737161 -157.85071666 126.22426901 -159.6484375 122.60546875 C-160.55299959 120.77329107 -161.45676178 118.94072053 -162.3604126 117.10809326 C-163.24080902 115.33105159 -164.1318286 113.55928584 -165.02294922 111.78759766 C-165.55678223 110.69882324 -166.09061523 109.61004883 -166.640625 108.48828125 C-167.12047852 107.52446533 -167.60033203 106.56064941 -168.09472656 105.56762695 C-169 103 -169 103 -168.85839844 100.7644043 C-167.25406304 97.46675586 -163.26110233 96.72897795 -160 95.5 C-140.44514126 87.6746811 -121.86258524 78.13737704 -103.67089844 67.55078125 C-101.12416591 66.07209341 -98.568182 64.61116749 -96.0078125 63.15625 C-66.2811298 46.21670173 -37.56551884 26.9152987 -10.32421875 6.21484375 C-9.75791748 5.78526367 -9.19161621 5.35568359 -8.6081543 4.91308594 C-7.12938771 3.7861073 -5.658072 2.64936959 -4.1875 1.51171875 C-2 0 -2 0 0 0 Z " fill="#FEFBFB" transform="translate(392,452)"/>
<path d="M0 0 C9.87183683 8.03521602 18.81928746 17.18291574 26.71484375 27.15625 C28.79505553 29.74495799 30.94278363 32.24187345 33.1340332 34.73535156 C41.31255475 44.07228495 48.6450332 54.01027927 56 64 C57.32017648 65.78786086 58.64048856 67.57562161 59.9609375 69.36328125 C62.85017662 73.27791127 65.73382054 77.19659612 68.61230469 81.11914062 C69.59910647 82.45663551 70.62526954 83.76547266 71.67675781 85.05273438 C73 87 73 87 73 90 C70.99064567 91.5649177 69.02746968 92.90532592 66.875 94.25 C65.50413498 95.13375391 64.13441547 96.01928635 62.765625 96.90625 C62.00958984 97.39351563 61.25355469 97.88078125 60.47460938 98.3828125 C55.80871477 101.43203171 51.22252266 104.59905473 46.625 107.75 C40.11026414 112.20799482 33.57941427 116.63789063 27 121 C23.32388359 115.79547877 19.69742825 110.56850635 16.1875 105.25 C8.20927757 93.26738241 -0.31582623 81.92861365 -9.48974609 70.83496094 C-10.86624781 69.16250912 -12.22794136 67.47967493 -13.58203125 65.7890625 C-17.29795113 61.16790149 -21.05819709 56.79079247 -25.32421875 52.671875 C-27.12600297 50.87429075 -28.77977256 48.99339698 -30.4375 47.0625 C-34.08407192 42.82750398 -38.00351553 38.90306016 -42 35 C-39.08797082 31.04746159 -36.00315145 28.2878672 -32.0625 25.375 C-27.38604488 21.87180622 -22.86409914 18.25133996 -18.4375 14.4375 C-12.49653869 9.33218442 -6.32736059 4.61726313 0 0 Z " fill="#FEFBFC" transform="translate(296,336)"/>
<path d="M0 0 C0.33 0 0.66 0 1 0 C1 23.1 1 46.2 1 70 C-70.61 70 -142.22 70 -216 70 C-216 87.49 -216 104.98 -216 123 C-144.39 123 -72.78 123 1 123 C1 202.2 1 281.4 1 363 C0.67 363 0.34 363 0 363 C0 284.46 0 205.92 0 125 C-71.36999886 125.03962258 -71.36999886 125.03962258 -142.73999023 125.09008789 C-156.5098877 125.09460449 -156.5098877 125.09460449 -162.94593811 125.09544373 C-167.46339911 125.09637943 -171.98084848 125.10014292 -176.49830627 125.10557556 C-182.24887853 125.11240024 -187.99943372 125.11449758 -193.75000966 125.11307228 C-195.86779346 125.11337061 -197.98557781 125.11537376 -200.10335815 125.11921513 C-202.94945628 125.12414044 -205.79548684 125.12300792 -208.6415863 125.12025452 C-209.90336244 125.12462351 -209.90336244 125.12462351 -211.19062901 125.12908077 C-216.88587517 125.11412483 -216.88587517 125.11412483 -218 124 C-218.09881593 122.28681054 -218.12798969 120.56955197 -218.12939453 118.85351562 C-218.13412277 117.20675842 -218.13412277 117.20675842 -218.13894653 115.5267334 C-218.1369223 114.33197388 -218.13489807 113.13721436 -218.1328125 111.90625 C-218.13376923 110.68925415 -218.13472595 109.4722583 -218.13571167 108.21838379 C-218.13639372 105.63924101 -218.13453772 103.06009653 -218.13037109 100.48095703 C-218.12502322 96.51721364 -218.13031529 92.55358358 -218.13671875 88.58984375 C-218.13605797 86.09114558 -218.13477682 83.59244748 -218.1328125 81.09375 C-218.13483673 79.89899048 -218.13686096 78.70423096 -218.13894653 77.4732666 C-218.13579437 76.37542847 -218.13264221 75.27759033 -218.12939453 74.14648438 C-218.12859894 73.1746521 -218.12780334 72.20281982 -218.12698364 71.20153809 C-218 69 -218 69 -217 68 C-214.20576409 67.90210052 -211.43624787 67.87007091 -208.6415863 67.87974548 C-207.75460102 67.87889106 -206.86761573 67.87803663 -205.9537521 67.87715632 C-202.95799894 67.87549879 -199.9623008 67.88102733 -196.96655273 67.88647461 C-194.8285014 67.88675645 -192.69044996 67.88659881 -190.55239868 67.8860321 C-184.72825507 67.885744 -178.90413186 67.89164278 -173.07999301 67.89860606 C-167.00076318 67.90483749 -160.92153294 67.90544323 -154.84230042 67.90663147 C-143.32151502 67.90974541 -131.80073906 67.91795964 -120.27995783 67.92798096 C-107.16773071 67.93914015 -94.05550315 67.94465206 -80.94327247 67.94967639 C-53.9621752 67.96014221 -26.98109088 67.97848847 0 68 C0 45.56 0 23.12 0 0 Z " fill="#F02E74" transform="translate(427,205)"/>
<path d="M0 0 C1.40798005 0.00600198 2.81594708 0.02890387 4.22348022 0.06488037 C4.99284409 0.07258957 5.76220795 0.08029877 6.55488586 0.08824158 C9.09898526 0.11752706 11.64214557 0.16855599 14.18588257 0.22015381 C15.95038207 0.2456492 17.71489926 0.26994579 19.47943115 0.29309082 C23.17671688 0.34466819 26.87365365 0.40617922 30.57064819 0.4755249 C35.32000878 0.56446653 40.06941881 0.63587909 44.81916237 0.70080948 C49.33733817 0.76344604 53.85535194 0.83542074 58.37338257 0.90765381 C59.24092793 0.92060738 60.10847328 0.93356094 61.00230789 0.94690704 C63.44464783 0.98493214 65.88676608 1.02966464 68.32894897 1.07659912 C69.05934891 1.08706772 69.78974884 1.09753632 70.5422821 1.10832214 C75.53211449 1.21482323 75.53211449 1.21482323 76.64682007 2.32952881 C76.745636 4.04271827 76.77480976 5.75997684 76.7762146 7.47601318 C76.77936676 8.57385132 76.78251892 9.67168945 76.7857666 10.80279541 C76.78273026 12.59493469 76.78273026 12.59493469 76.77963257 14.42327881 C76.78058929 15.64027466 76.78154602 16.85727051 76.78253174 18.11114502 C76.78321379 20.6902878 76.78135778 23.26943228 76.77719116 25.84857178 C76.77184329 29.81231516 76.77713536 33.77594523 76.78353882 37.73968506 C76.78287804 40.23838323 76.78159689 42.73708132 76.77963257 45.23577881 C76.7816568 46.43053833 76.78368103 47.62529785 76.7857666 48.85626221 C76.78103836 50.50301941 76.78103836 50.50301941 76.7762146 52.18304443 C76.77541901 53.15487671 76.77462341 54.12670898 76.77380371 55.12799072 C76.64682007 57.32952881 76.64682007 57.32952881 75.64682007 58.32952881 C73.34325573 58.42664823 71.03664349 58.45139451 68.73103333 58.44978333 C67.63331788 58.45106496 67.63331788 58.45106496 66.51342636 58.45237249 C64.04281127 58.45402947 61.57226296 58.4485024 59.10165405 58.4430542 C57.33798219 58.44277235 55.57431022 58.44293002 53.81063843 58.4434967 C49.00712164 58.44378476 44.2036296 58.43788673 39.40011859 58.43092275 C34.38592322 58.42469055 29.37172734 58.42408552 24.35752869 58.42289734 C14.85545246 58.41978363 5.35338768 58.4115697 -4.14868349 58.40154785 C-14.96349332 58.39038795 -25.77830368 58.38487657 -36.59311783 58.37985241 C-58.84647968 58.36938712 -81.09982583 58.35104115 -103.35317993 58.32952881 C-103.35317993 71.85952881 -103.35317993 85.38952881 -103.35317993 99.32952881 C-103.68317993 99.32952881 -104.01317993 99.32952881 -104.35317993 99.32952881 C-107.16493791 85.27073894 -105.35317993 70.66673759 -105.35317993 56.32952881 C-45.62317993 56.32952881 14.10682007 56.32952881 75.64682007 56.32952881 C75.64682007 38.83952881 75.64682007 21.34952881 75.64682007 3.32952881 C48.58682007 3.32952881 21.52682007 3.32952881 -6.35317993 3.32952881 C-3.35317993 0.32952881 -3.35317993 0.32952881 0 0 Z " fill="#F13F80" transform="translate(592.3531799316406,271.67047119140625)"/>
<path d="M0 0 C18.15 0 36.3 0 55 0 C55 22.77 55 45.54 55 69 C83.215 68.505 83.215 68.505 112 68 C107.87593941 63.47841194 107.87593941 63.47841194 103 60 C103.495 59.01 103.495 59.01 104 58 C105.23447704 59.03536784 106.46228012 60.07869393 107.6875 61.125 C108.71423828 61.99511719 108.71423828 61.99511719 109.76171875 62.8828125 C112.39540494 65.37401305 114.67917631 68.21501157 117 71 C95.88 71 74.76 71 53 71 C53 47.9 53 24.8 53 1 C35.51 1 18.02 1 0 1 C0 0.67 0 0.34 0 0 Z " fill="#F22F76" transform="translate(434,204)"/>
<path d="M0 0 C3.00013467 3.00013467 4.39474391 6.68922003 6.1875 10.5 C6.56841797 11.28503906 6.94933594 12.07007813 7.34179688 12.87890625 C7.69693359 13.63042969 8.05207031 14.38195312 8.41796875 15.15625 C8.90946411 16.18975586 8.90946411 16.18975586 9.41088867 17.24414062 C9.60529541 17.82357422 9.79970215 18.40300781 10 19 C9.67 19.66 9.34 20.32 9 21 C7.02 17.37 5.04 13.74 3 10 C2.67 42.01 2.34 74.02 2 107 C1.67 107 1.34 107 1 107 C0.505 54.035 0.505 54.035 0 0 Z " fill="#F1236C" transform="translate(487,464)"/>
<path d="M0 0 C0.33 0 0.66 0 1 0 C1.33 8.91 1.66 17.82 2 27 C2.33 23.37 2.66 19.74 3 16 C3.33 16 3.66 16 4 16 C4 22.6 4 29.2 4 36 C3.67 36 3.34 36 3 36 C2.67 39.3 2.34 42.6 2 46 C1.67 46 1.34 46 1 46 C0.01861811 35.87085547 -0.12139214 25.84917172 -0.0625 15.6875 C-0.05746888 14.15690253 -0.05290886 12.62630343 -0.04882812 11.09570312 C-0.03796424 7.39710089 -0.02079101 3.69856136 0 0 Z " fill="#F77CAB" transform="translate(1,259)"/>
<path d="M0 0 C0.33 0 0.66 0 1 0 C0.42878014 9.75583392 -0.60523707 19.33144919 -2 29 C-2.33 29 -2.66 29 -3 29 C-3 26.03 -3 23.06 -3 20 C-3.66 19.67 -4.32 19.34 -5 19 C-4.67 18.67 -4.34 18.34 -4 18 C-3.45783976 14.77437436 -3.03401348 11.53838585 -2.59765625 8.296875 C-2.05039176 5.27797809 -1.25254352 2.78808851 0 0 Z " fill="#F9518C" transform="translate(6,228)"/>
<path d="M0 0 C4.08931941 1.64955638 6.97964822 4.57403316 10.125 7.5625 C13.76403407 11.18633907 13.76403407 11.18633907 18 14 C18 14.66 18 15.32 18 16 C18.99 16.33 19.98 16.66 21 17 C20.01 17.33 19.02 17.66 18 18 C15.73828125 16.63671875 15.73828125 16.63671875 13.3125 14.6875 C12.50425781 14.05199219 11.69601562 13.41648437 10.86328125 12.76171875 C9.94095703 11.88966797 9.94095703 11.88966797 9 11 C9 10.34 9 9.68 9 9 C8.443125 8.79375 7.88625 8.5875 7.3125 8.375 C4.05356595 6.43725543 2.30433531 4.00843777 0 1 C0 0.67 0 0.34 0 0 Z " fill="#F7508B" transform="translate(288,725)"/>
<path d="M0 0 C7.92 0.33 15.84 0.66 24 1 C24 1.33 24 1.66 24 2 C16.41 2.33 8.82 2.66 1 3 C0.67 2.01 0.34 1.02 0 0 Z " fill="#FA7FA8" transform="translate(648,38)"/>
<path d="M0 0 C3.84098477 2.11492945 6.7439943 4.50051824 9.8125 7.625 C10.60269531 8.42164063 11.39289062 9.21828125 12.20703125 10.0390625 C14 12 14 12 14 13 C11.69 13 9.38 13 7 13 C7.66 12.01 8.32 11.02 9 10 C7.87811441 8.85111717 6.75238316 7.70598863 5.625 6.5625 C4.99851562 5.92441406 4.37203125 5.28632813 3.7265625 4.62890625 C2.08276939 2.92117824 2.08276939 2.92117824 0 2 C0 1.34 0 0.68 0 0 Z " fill="#F0246F" transform="translate(537,262)"/>
<path d="M0 0 C2.77141717 -0.08089542 5.54047819 -0.14044062 8.3125 -0.1875 C9.09818359 -0.21263672 9.88386719 -0.23777344 10.69335938 -0.26367188 C11.45068359 -0.27333984 12.20800781 -0.28300781 12.98828125 -0.29296875 C14.03302612 -0.31653442 14.03302612 -0.31653442 15.09887695 -0.34057617 C17.54489783 0.09761557 18.42702086 1.13437358 20 3 C6.3667426 2.03644647 6.3667426 2.03644647 0 1 C0 0.67 0 0.34 0 0 Z " fill="#FA4C8B" transform="translate(249,41)"/>
<path d="M0 0 C-0.99 1.485 -0.99 1.485 -2 3 C-3.87939453 3.2487793 -3.87939453 3.2487793 -6.1328125 3.07421875 C-7.34130859 2.99204102 -7.34130859 2.99204102 -8.57421875 2.90820312 C-9.41597656 2.83537109 -10.25773438 2.76253906 -11.125 2.6875 C-11.97449219 2.62626953 -12.82398438 2.56503906 -13.69921875 2.50195312 C-15.80053665 2.34848609 -17.90045124 2.17602278 -20 2 C-20 1.67 -20 1.34 -20 1 C-13.30386804 0.202163 -6.74233419 -0.12910853 0 0 Z " fill="#F975A5" transform="translate(217,39)"/>
<path d="M0 0 C0.33 0 0.66 0 1 0 C1.21192221 5.19209404 0.5912689 9.126739 -1 14 C-1.66 14 -2.32 14 -3 14 C-3.33 14.66 -3.66 15.32 -4 16 C-2.84941444 10.60204011 -1.57578241 5.29012667 0 0 Z " fill="#FA518B" transform="translate(865,370)"/>
<path d="M0 0 C6.93 0.33 13.86 0.66 21 1 C21 1.33 21 1.66 21 2 C10.605 2.495 10.605 2.495 0 3 C0 2.01 0 1.02 0 0 Z " fill="#FA75A3" transform="translate(229,38)"/>
<path d="M0 0 C2.99220268 1.36370299 5.29026529 2.94908083 7.75 5.125 C8.67039062 5.93324219 8.67039062 5.93324219 9.609375 6.7578125 C10.06828125 7.16773438 10.5271875 7.57765625 11 8 C10.01 8.33 9.02 8.66 8 9 C6.2109375 7.890625 6.2109375 7.890625 4.375 6.25 C3.76398438 5.71890625 3.15296875 5.1878125 2.5234375 4.640625 C1 3 1 3 0 0 Z " fill="#F9518D" transform="translate(334,765)"/>
<path d="M0 0 C0.66 0.33 1.32 0.66 2 1 C1.55527344 1.44730469 1.11054687 1.89460938 0.65234375 2.35546875 C-1.05239217 4.17670143 -2.60847964 5.92770506 -4 8 C-4.05050452 10.85945818 -4.05050452 10.85945818 -3 13 C-4.65 11.35 -6.3 9.7 -8 8 C-5.33333333 5.33333333 -2.66666667 2.66666667 0 0 Z " fill="#F22C72" transform="translate(547,456)"/>
<path d="M0 0 C4.38889325 0.66498383 7.9811485 2.18757677 12 4 C9.58959839 5.53690745 8.49917715 6.09752136 5.640625 5.5390625 C4.85171875 5.23742188 4.0628125 4.93578125 3.25 4.625 C2.05117188 4.18027344 2.05117188 4.18027344 0.828125 3.7265625 C0.22484375 3.48679688 -0.3784375 3.24703125 -1 3 C-0.67 2.01 -0.34 1.02 0 0 Z " fill="#F7659A" transform="translate(738,57)"/>
<path d="M0 0 C3 1 3 1 4.1875 3.0625 C4.455625 3.701875 4.72375 4.34125 5 5 C4.13375 4.566875 3.2675 4.13375 2.375 3.6875 C-0.82564548 2.65121687 -0.82564548 2.65121687 -2.734375 3.98046875 C-4.22296923 5.24577385 -5.61853162 6.61853162 -7 8 C-5.51218185 4.21282653 -3.38011591 2.22592999 0 0 Z " fill="#F42A73" transform="translate(546,209)"/>
<path d="M0 0 C1.25127906 3.54667178 0.72285053 5.72253438 -0.4375 9.25 C-0.72496094 10.14203125 -1.01242187 11.0340625 -1.30859375 11.953125 C-1.53675781 12.62859375 -1.76492188 13.3040625 -2 14 C-2.66 12.68 -3.32 11.36 -4 10 C-3.34 10 -2.68 10 -2 10 C-2.185625 9.4225 -2.37125 8.845 -2.5625 8.25 C-3.04023546 5.79307475 -2.75729364 4.35602466 -2 2 C-1.34 2 -0.68 2 0 2 C0 1.34 0 0.68 0 0 Z " fill="#F8699C" transform="translate(870,356)"/>
<path d="M0 0 C0.33 0.99 0.66 1.98 1 3 C0.0479279 4.00596297 -0.91187346 5.00461563 -1.875 6 C-2.40867187 6.556875 -2.94234375 7.11375 -3.4921875 7.6875 C-5 9 -5 9 -7 9 C-5.44499019 5.18315774 -2.96404505 2.80804268 0 0 Z " fill="#F8508C" transform="translate(712,611)"/>
<path d="M0 0 C0.33 0 0.66 0 1 0 C2.125 5.625 2.125 5.625 1 9 C0.34 9 -0.32 9 -1 9 C-1.33 10.98 -1.66 12.96 -2 15 C-3.31534494 11.34142468 -2.65468309 8.91973519 -1.5625 5.25 C-1.27503906 4.26515625 -0.98757812 3.2803125 -0.69140625 2.265625 C-0.46324219 1.51796875 -0.23507812 0.7703125 0 0 Z " fill="#F973AD" transform="translate(11,201)"/>
<path d="M0 0 C1.17539996 0.92652701 2.34010577 1.86663387 3.5 2.8125 C4.1496875 3.33457031 4.799375 3.85664062 5.46875 4.39453125 C7 6 7 6 7 9 C5.82460004 8.07347299 4.65989423 7.13336613 3.5 6.1875 C2.52546875 5.40439453 2.52546875 5.40439453 1.53125 4.60546875 C0 3 0 3 0 0 Z " fill="#FA4E8B" transform="translate(169,611)"/>
<path d="M0 0 C0.66 0.66 1.32 1.32 2 2 C1.9375 4.5 1.9375 4.5 1 7 C-1.5625 8.3125 -1.5625 8.3125 -4 9 C-2.80100302 5.9168649 -1.52299523 2.93720508 0 0 Z " fill="#F9639B" transform="translate(445,168)"/>
<path d="M0 0 C3.37503669 1.1858237 5.64722731 2.27573689 8 5 C5.36 4.67 2.72 4.34 0 4 C-0.33 3.01 -0.66 2.02 -1 1 C-0.67 0.67 -0.34 0.34 0 0 Z " fill="#F86498" transform="translate(339,68)"/>
<path d="M0 0 C0.33 0 0.66 0 1 0 C1.91457003 5.56157448 2.32086397 9.675665 0 15 C-0.33 15 -0.66 15 -1 15 C-1.18451025 4.44191344 -1.18451025 4.44191344 0 0 Z " fill="#FA3E7B" transform="translate(877,307)"/>
<path d="M0 0 C3.3 0 6.6 0 10 0 C10 0.66 10 1.32 10 2 C10.99 2.33 11.98 2.66 13 3 C11.58249437 2.88490339 10.16598831 2.75746342 8.75 2.625 C7.96109375 2.55539063 7.1721875 2.48578125 6.359375 2.4140625 C4 2 4 2 0 0 Z " fill="#F94A88" transform="translate(271,44)"/>
<path d="M0 0 C0.99 0.66 1.98 1.32 3 2 C1.35 2 -0.3 2 -2 2 C-2 2.66 -2 3.32 -2 4 C-2.99 4 -3.98 4 -5 4 C-5.33 2.68 -5.66 1.36 -6 0 C-3 -1 -3 -1 0 0 Z " fill="#F769A3" transform="translate(273,42)"/>
<path d="M0 0 C3.73487777 0.4979837 5.81237635 0.87491756 9 3 C6.08517222 3.80967438 4.53886783 4.21845993 1.6875 3.0625 C1.130625 2.711875 0.57375 2.36125 0 2 C0 1.34 0 0.68 0 0 Z " fill="#F86EA0" transform="translate(301,51)"/>
<path d="M0 0 C1 3 1 3 -0.25 5.625 C-2 8 -2 8 -5 9 C-3.7508258 5.54074837 -2.32472205 2.85306797 0 0 Z " fill="#F8508A" transform="translate(804,499)"/>
<path d="M0 0 C1.5625 1.25 1.5625 1.25 3 3 C2.6875 5.1875 2.6875 5.1875 2 7 C0.68 6.34 -0.64 5.68 -2 5 C-1.34 4.67 -0.68 4.34 0 4 C0 2.68 0 1.36 0 0 Z " fill="#F949A5" transform="translate(61,473)"/>
<path d="M0 0 C2.11180592 2.57089417 3.66306057 4.63060567 4 8 C3.34 8.66 2.68 9.32 2 10 C0.39644899 6.49223216 -0.22036864 3.85645121 0 0 Z " fill="#F9538B" transform="translate(27,402)"/>
<path d="M0 0 C0.33 0.66 0.66 1.32 1 2 C1.66 2 2.32 2 3 2 C2.67 3.98 2.34 5.96 2 8 C1.01 8 0.02 8 -1 8 C-2.2077558 4.37673261 -1.54311128 3.35853631 0 0 Z M0 4 C1 7 1 7 1 7 Z " fill="#FB5FAE" transform="translate(12,358)"/>
<path d="M0 0 C1.32 0.33 2.64 0.66 4 1 C3.38722388 3.96175123 2.74627478 5.38058783 1 8 C0.67 5.36 0.34 2.72 0 0 Z " fill="#F8699C" transform="translate(8,341)"/>
<path d="M0 0 C0.33 0 0.66 0 1 0 C0.67 3.63 0.34 7.26 0 11 C-1.86870807 7.26258387 -2.41702384 5.96172649 -2 2 C-1.34 1.34 -0.68 0.68 0 0 Z " fill="#F96F9F" transform="translate(876,325)"/>
<path d="M0 0 C0.99 0 1.98 0 3 0 C3.59732819 2.76264289 4 5.16032769 4 8 C2 6.25 2 6.25 0 4 C0 2.68 0 1.36 0 0 Z " fill="#FA52A2" transform="translate(422,149)"/>
<path d="M0 0 C1.32 0.33 2.64 0.66 4 1 C1.03 3.475 1.03 3.475 -2 6 C-2.66 5.67 -3.32 5.34 -4 5 C-2.68 3.35 -1.36 1.7 0 0 Z " fill="#FA4E8C" transform="translate(94,83)"/>
<path d="M0 0 C0.33 0.66 0.66 1.32 1 2 C-3.01804691 2.84098656 -6.01803543 3.05404945 -10 2 C-6.5980513 -0.09350689 -3.94727588 -0.17942163 0 0 Z " fill="#F9639C" transform="translate(609,43)"/>
<path d="M0 0 C3.63 0 7.26 0 11 0 C10.01 0.33 9.02 0.66 8 1 C8 1.66 8 2.32 8 3 C5.36 2.67 2.72 2.34 0 2 C0 1.34 0 0.68 0 0 Z " fill="#FA77A4" transform="translate(185,41)"/>
<path d="M0 0 C3.96 0.33 7.92 0.66 12 1 C12 1.33 12 1.66 12 2 C8.7 2.33 5.4 2.66 2 3 C1.34 2.01 0.68 1.02 0 0 Z " fill="#F976A6" transform="translate(675,40)"/>
<path d="M0 0 C-1.15173355 2.46800047 -2.04783565 4.04783565 -4 6 C-4.99 5.67 -5.98 5.34 -7 5 C-2.25 0 -2.25 0 0 0 Z " fill="#F8508B" transform="translate(621,701)"/>
<path d="M0 0 C-1.15173355 2.46800047 -2.04783565 4.04783565 -4 6 C-4.99 5.67 -5.98 5.34 -7 5 C-2.25 0 -2.25 0 0 0 Z " fill="#F9508B" transform="translate(634,689)"/>
<path d="M0 0 C-1.15173355 2.46800047 -2.04783565 4.04783565 -4 6 C-4.99 5.67 -5.98 5.34 -7 5 C-2.25 0 -2.25 0 0 0 Z " fill="#F84F8B" transform="translate(648,676)"/>
<path d="M0 0 C4 1 4 1 6 3 C5.67 4.32 5.34 5.64 5 7 C3.35 4.69 1.7 2.38 0 0 Z " fill="#F66599" transform="translate(108,544)"/>
<path d="M0 0 C2.79872437 2.52788007 4.45773019 4.20411134 5 8 C2 7 2 7 0 4 C0 2.68 0 1.36 0 0 Z " fill="#F74B86" transform="translate(69,486)"/>
<path d="M0 0 C2.32472205 2.85306797 3.7508258 5.54074837 5 9 C2 8 2 8 0 5 C-0.125 2.3125 -0.125 2.3125 0 0 Z " fill="#F84B85" transform="translate(47,447)"/>
<path d="M0 0 C0.33 0.66 0.66 1.32 1 2 C0.06421005 4.35981813 -0.93347808 6.69631264 -2 9 C-2.33 9 -2.66 9 -3 9 C-3.36923077 3.46153846 -3.36923077 3.46153846 -1.5 1.125 C-1.005 0.75375 -0.51 0.3825 0 0 Z " fill="#F96398" transform="translate(851,414)"/>
<path d="M0 0 C0.33 0 0.66 0 1 0 C1 1.98 1 3.96 1 6 C0.01 5.34 -0.98 4.68 -2 4 C-1.34 2.68 -0.68 1.36 0 0 Z " fill="#FF3FBF" transform="translate(3,323)"/>
<path d="M0 0 C0.33 0.99 0.66 1.98 1 3 C0.01 3.495 0.01 3.495 -1 4 C-0.67 2.68 -0.34 1.36 0 0 Z " fill="#FF2AD4" transform="translate(28,412)"/>
<path d="M0 0 C0.66 0.66 1.32 1.32 2 2 C1.01 2 0.02 2 -1 2 C-0.67 1.34 -0.34 0.68 0 0 Z " fill="#FF58A6" transform="translate(418,837)"/>
<path d="M0 0 C0.66 0.66 1.32 1.32 2 2 C1.01 2.33 0.02 2.66 -1 3 C-0.67 2.01 -0.34 1.02 0 0 Z " fill="#FF58A6" transform="translate(258,702)"/>
<path d="M0 0 C0.66 0.66 1.32 1.32 2 2 C1.01 2 0.02 2 -1 2 C-0.67 1.34 -0.34 0.68 0 0 Z " fill="#FF2AD4" transform="translate(130,573)"/>
<path d="M0 0 C0.33 1.32 0.66 2.64 1 4 C0.34 3.67 -0.32 3.34 -1 3 C-0.67 2.01 -0.34 1.02 0 0 Z " fill="#FF19E5" transform="translate(10,358)"/>
<path d="M0 0 C0.33 0 0.66 0 1 0 C1 1.65 1 3.3 1 5 C0.67 5 0.34 5 0 5 C0 3.35 0 1.7 0 0 Z " fill="#FF4CB2" transform="translate(1,305)"/>
<path d="M0 0 C0.66 0.33 1.32 0.66 2 1 C1.34 1.66 0.68 2.32 0 3 C0 2.01 0 1.02 0 0 Z " fill="#FF2AD4" transform="translate(852,153)"/>
<path d="M0 0 C0.66 0.33 1.32 0.66 2 1 C1.67 1.66 1.34 2.32 1 3 C0.34 2.67 -0.32 2.34 -1 2 C-0.67 1.34 -0.34 0.68 0 0 Z " fill="#FF2AD4" transform="translate(90,81)"/>
<path d="M0 0 C1.32 0.33 2.64 0.66 4 1 C3.01 1.495 3.01 1.495 2 2 C1.34 1.34 0.68 0.68 0 0 Z " fill="#FF32CB" transform="translate(726,50)"/>
<path d="M0 0 C0 3 0 3 0 3 Z " fill="#FF35C9" transform="translate(26,408)"/>
<path d="M0 0 C1 4 1 4 1 4 Z " fill="#FF3FBF" transform="translate(9,201)"/>
<path d="M0 0 C0.99 0.33 1.98 0.66 3 1 C2.01 1.33 1.02 1.66 0 2 C0 1.34 0 0.68 0 0 Z " fill="#FF7F7F" transform="translate(133,57)"/>
<path d="M0 0 C0.66 0 1.32 0 2 0 C2 0.66 2 1.32 2 2 C1.34 2 0.68 2 0 2 C0 1.34 0 0.68 0 0 Z " fill="#FF35C9" transform="translate(573,49)"/>
<path d="M0 0 C4 1 4 1 4 1 Z " fill="#FF4EB0" transform="translate(301,49)"/>
<path d="M0 0 C4 1 4 1 4 1 Z " fill="#FF3FBF" transform="translate(153,49)"/>
<path d="M0 0 C4 1 4 1 4 1 Z " fill="#FF2ED0" transform="translate(692,41)"/>
<path d="M0 0 C0.66 0.66 1.32 1.32 2 2 C1.34 2 0.68 2 0 2 C0 1.34 0 0.68 0 0 Z " fill="#FF54A9" transform="translate(281,723)"/>
<path d="M0 0 C0.66 0.66 1.32 1.32 2 2 C1.34 2 0.68 2 0 2 C0 1.34 0 0.68 0 0 Z " fill="#FF7F7F" transform="translate(268,711)"/>
<path d="" fill="#FF46B8" transform="translate(0,0)"/>
<path d="" fill="#FF4CB2" transform="translate(0,0)"/>
<path d="" fill="#FF46B8" transform="translate(0,0)"/>
<path d="" fill="#FF54A9" transform="translate(0,0)"/>
<path d="" fill="#FF54A9" transform="translate(0,0)"/>
<path d="M0 0 C3 1 3 1 3 1 Z " fill="#FF00FF" transform="translate(65,105)"/>
<path d="M0 0 C0.66 0 1.32 0 2 0 C1.67 0.66 1.34 1.32 1 2 C0.67 1.34 0.34 0.68 0 0 Z " fill="#FF2AD4" transform="translate(524,73)"/>
<path d="M0 0 C3 1 3 1 3 1 Z " fill="#FF1CE2" transform="translate(145,52)"/>
<path d="M0 0 C3 1 3 1 3 1 Z " fill="#FF46B8" transform="translate(702,43)"/>
<path d="M0 0 C2 1 2 1 2 1 Z " fill="#FF7F7F" transform="translate(409,831)"/>
<path d="" fill="#FF6A94" transform="translate(0,0)"/>
<path d="M0 0 C2 1 2 1 2 1 Z " fill="#FF00FF" transform="translate(359,792)"/>
<path d="" fill="#FF7F7F" transform="translate(0,0)"/>
<path d="" fill="#FF3FBF" transform="translate(0,0)"/>
<path d="M0 0 C2 1 2 1 2 1 Z " fill="#FF3FBF" transform="translate(206,655)"/>
<path d="" fill="#FF2AD4" transform="translate(0,0)"/>
<path d="" fill="#FF00FF" transform="translate(0,0)"/>
<path d="M0 0 C2 1 2 1 2 1 Z " fill="#FF00FF" transform="translate(42,446)"/>
<path d="M0 0 C2 1 2 1 2 1 Z " fill="#FF00FF" transform="translate(41,444)"/>
<path d="" fill="#FF00FF" transform="translate(0,0)"/>
<path d="" fill="#FF7F7F" transform="translate(0,0)"/>
<path d="" fill="#FF00FF" transform="translate(0,0)"/>
<path d="M0 0 C2 1 2 1 2 1 Z " fill="#FF00FF" transform="translate(862,392)"/>
<path d="" fill="#FF2AD4" transform="translate(0,0)"/>
<path d="" fill="#FF3FBF" transform="translate(0,0)"/>
<path d="" fill="#FF00FF" transform="translate(0,0)"/>
<path d="" fill="#FF7F7F" transform="translate(0,0)"/>
<path d="" fill="#FF00FF" transform="translate(0,0)"/>
<path d="" fill="#FF00FF" transform="translate(0,0)"/>
<path d="" fill="#FF55AA" transform="translate(0,0)"/>
<path d="" fill="#FF00FF" transform="translate(0,0)"/>
<path d="" fill="#FF3FBF" transform="translate(0,0)"/>
<path d="" fill="#FF2AD4" transform="translate(0,0)"/>
<path d="" fill="#FF00FF" transform="translate(0,0)"/>
<path d="" fill="#FF3FBF" transform="translate(0,0)"/>
<path d="" fill="#FF00FF" transform="translate(0,0)"/>
<path d="" fill="#FF7F7F" transform="translate(0,0)"/>
<path d="M0 0 C2 1 2 1 2 1 Z " fill="#FF00FF" transform="translate(830,122)"/>
<path d="" fill="#FF00FF" transform="translate(0,0)"/>
<path d="" fill="#FF00FF" transform="translate(0,0)"/>
<path d="M0 0 C2 1 2 1 2 1 Z " fill="#FF3FBF" transform="translate(806,97)"/>
<path d="M0 0 C2 1 2 1 2 1 Z " fill="#FF3FBF" transform="translate(372,89)"/>
<path d="M0 0 C2 1 2 1 2 1 Z " fill="#FF2AD4" transform="translate(100,76)"/>
<path d="" fill="#FF2AD4" transform="translate(0,0)"/>
<path d="M0 0 C2 1 2 1 2 1 Z " fill="#FF2AD4" transform="translate(105,73)"/>
<path d="" fill="#FF7F7F" transform="translate(0,0)"/>
<path d="M0 0 C2 1 2 1 2 1 Z " fill="#FF6A94" transform="translate(118,65)"/>
<path d="M0 0 C2 1 2 1 2 1 Z " fill="#FF7F7F" transform="translate(129,59)"/>
<path d="M0 0 C2 1 2 1 2 1 Z " fill="#FF7F7F" transform="translate(577,49)"/>
<path d="M0 0 C2 1 2 1 2 1 Z " fill="#FF00FF" transform="translate(149,49)"/>
<path d="M0 0 C2 1 2 1 2 1 Z " fill="#FF00FF" transform="translate(173,43)"/>
<path d="M0 0 C2 1 2 1 2 1 Z " fill="#FF00FF" transform="translate(697,41)"/>
<path d="M0 0 C2 1 2 1 2 1 Z " fill="#FF3FBF" transform="translate(605,41)"/>
<path d="M0 0 C2 1 2 1 2 1 Z " fill="#FF00FF" transform="translate(634,37)"/>
<path d="" fill="#FF00FF" transform="translate(0,0)"/>
<path d="" fill="#FF00FF" transform="translate(0,0)"/>
<path d="" fill="#FF00FF" transform="translate(0,0)"/>
<path d="" fill="#FF00FF" transform="translate(0,0)"/>
<path d="" fill="#FF00FF" transform="translate(0,0)"/>
<path d="" fill="#FF55AA" transform="translate(0,0)"/>
<path d="" fill="#FF00FF" transform="translate(0,0)"/>
<path d="" fill="#FF7F7F" transform="translate(0,0)"/>
<path d="" fill="#FF00FF" transform="translate(0,0)"/>
<path d="" fill="#FF00FF" transform="translate(0,0)"/>
<path d="" fill="#FF55AA" transform="translate(0,0)"/>
<path d="" fill="#FF00FF" transform="translate(0,0)"/>
<path d="" fill="#FF00FF" transform="translate(0,0)"/>
<path d="" fill="#FF7F7F" transform="translate(0,0)"/>
<path d="" fill="#FF00FF" transform="translate(0,0)"/>
<path d="" fill="#FF7F7F" transform="translate(0,0)"/>
<path d="" fill="#FF7F7F" transform="translate(0,0)"/>
<path d="" fill="#FF00FF" transform="translate(0,0)"/>
<path d="" fill="#FF00FF" transform="translate(0,0)"/>
<path d="" fill="#FF55AA" transform="translate(0,0)"/>
<path d="" fill="#FF55AA" transform="translate(0,0)"/>
<path d="" fill="#FF00FF" transform="translate(0,0)"/>
<path d="" fill="#FF00FF" transform="translate(0,0)"/>
<path d="" fill="#FF00FF" transform="translate(0,0)"/>
<path d="" fill="#FF00FF" transform="translate(0,0)"/>
<path d="" fill="#FF7F7F" transform="translate(0,0)"/>
<path d="" fill="#FF7F7F" transform="translate(0,0)"/>
<path d="" fill="#FF00FF" transform="translate(0,0)"/>
<path d="" fill="#FF7F7F" transform="translate(0,0)"/>
<path d="" fill="#FF00FF" transform="translate(0,0)"/>
<path d="" fill="#FF00FF" transform="translate(0,0)"/>
<path d="" fill="#FF00FF" transform="translate(0,0)"/>
<path d="" fill="#FF55AA" transform="translate(0,0)"/>
<path d="" fill="#FF7F7F" transform="translate(0,0)"/>
<path d="" fill="#FF00FF" transform="translate(0,0)"/>
<path d="" fill="#FF55AA" transform="translate(0,0)"/>
<path d="" fill="#FF00FF" transform="translate(0,0)"/>
<path d="" fill="#FF55AA" transform="translate(0,0)"/>
<path d="" fill="#FF00FF" transform="translate(0,0)"/>
<path d="" fill="#FF00FF" transform="translate(0,0)"/>
<path d="" fill="#FF00FF" transform="translate(0,0)"/>
<path d="" fill="#FF00FF" transform="translate(0,0)"/>
<path d="" fill="#FF00FF" transform="translate(0,0)"/>
<path d="" fill="#FF00FF" transform="translate(0,0)"/>
<path d="" fill="#FF7F7F" transform="translate(0,0)"/>
<path d="" fill="#FF7F7F" transform="translate(0,0)"/>
<path d="" fill="#FF00FF" transform="translate(0,0)"/>
<path d="" fill="#FF7F7F" transform="translate(0,0)"/>
<path d="" fill="#FF55AA" transform="translate(0,0)"/>
<path d="" fill="#FF7F7F" transform="translate(0,0)"/>
<path d="" fill="#FF7F7F" transform="translate(0,0)"/>
<path d="" fill="#FF00FF" transform="translate(0,0)"/>
<path d="" fill="#FF7F7F" transform="translate(0,0)"/>
<path d="" fill="#FF00FF" transform="translate(0,0)"/>
<path d="" fill="#FF7F7F" transform="translate(0,0)"/>
<path d="" fill="#FF7F7F" transform="translate(0,0)"/>
<path d="" fill="#FF55AA" transform="translate(0,0)"/>
<path d="" fill="#FF7F7F" transform="translate(0,0)"/>
<path d="" fill="#FF00FF" transform="translate(0,0)"/>
<path d="" fill="#FF7F7F" transform="translate(0,0)"/>
<path d="" fill="#FF00FF" transform="translate(0,0)"/>
<path d="" fill="#FF7F7F" transform="translate(0,0)"/>
<path d="" fill="#FF00FF" transform="translate(0,0)"/>
<path d="" fill="#FF7F7F" transform="translate(0,0)"/>
<path d="" fill="#FF7F7F" transform="translate(0,0)"/>
<path d="" fill="#FF00FF" transform="translate(0,0)"/>
<path d="" fill="#FF00FF" transform="translate(0,0)"/>
<path d="" fill="#FF00FF" transform="translate(0,0)"/>
<path d="" fill="#FF00FF" transform="translate(0,0)"/>
<path d="" fill="#FF7F7F" transform="translate(0,0)"/>
<path d="" fill="#FF00FF" transform="translate(0,0)"/>
<path d="" fill="#FF7F7F" transform="translate(0,0)"/>
<path d="" fill="#FF00FF" transform="translate(0,0)"/>
<path d="" fill="#FF00FF" transform="translate(0,0)"/>
<path d="" fill="#FF7F7F" transform="translate(0,0)"/>
<path d="" fill="#FF55AA" transform="translate(0,0)"/>
<path d="" fill="#FF7F7F" transform="translate(0,0)"/>
<path d="" fill="#FF00FF" transform="translate(0,0)"/>
<path d="" fill="#FF7F7F" transform="translate(0,0)"/>
<path d="" fill="#FF7F7F" transform="translate(0,0)"/>
<path d="" fill="#FF7F7F" transform="translate(0,0)"/>
<path d="" fill="#FF00FF" transform="translate(0,0)"/>
<path d="" fill="#FF00FF" transform="translate(0,0)"/>
<path d="" fill="#FF00FF" transform="translate(0,0)"/>
<path d="" fill="#FF55AA" transform="translate(0,0)"/>
<path d="" fill="#FF00FF" transform="translate(0,0)"/>
<path d="" fill="#FF00FF" transform="translate(0,0)"/>
<path d="" fill="#FF00FF" transform="translate(0,0)"/>
<path d="" fill="#FF00FF" transform="translate(0,0)"/>
<path d="" fill="#FF00FF" transform="translate(0,0)"/>
<path d="" fill="#FF7F7F" transform="translate(0,0)"/>
<path d="" fill="#FF00FF" transform="translate(0,0)"/>
<path d="" fill="#FF00FF" transform="translate(0,0)"/>
<path d="" fill="#FF55AA" transform="translate(0,0)"/>
<path d="" fill="#FF00FF" transform="translate(0,0)"/>
<path d="" fill="#FF7F7F" transform="translate(0,0)"/>
<path d="" fill="#FF7F7F" transform="translate(0,0)"/>
<path d="" fill="#FF55AA" transform="translate(0,0)"/>
<path d="" fill="#FF00FF" transform="translate(0,0)"/>
<path d="" fill="#FF00FF" transform="translate(0,0)"/>
<path d="" fill="#FF7F7F" transform="translate(0,0)"/>
<path d="" fill="#FF00FF" transform="translate(0,0)"/>
<path d="" fill="#FF7F7F" transform="translate(0,0)"/>
<path d="" fill="#FF7F7F" transform="translate(0,0)"/>
<path d="" fill="#FF55AA" transform="translate(0,0)"/>
<path d="" fill="#FF7F7F" transform="translate(0,0)"/>
<path d="" fill="#FF00FF" transform="translate(0,0)"/>
<path d="" fill="#FF00FF" transform="translate(0,0)"/>
<path d="" fill="#FF55AA" transform="translate(0,0)"/>
<path d="" fill="#FF00FF" transform="translate(0,0)"/>
<path d="" fill="#FF00FF" transform="translate(0,0)"/>
<path d="" fill="#FF55AA" transform="translate(0,0)"/>
<path d="" fill="#FF00FF" transform="translate(0,0)"/>
<path d="" fill="#FF00FF" transform="translate(0,0)"/>
<path d="" fill="#FF7F7F" transform="translate(0,0)"/>
<path d="" fill="#FF00FF" transform="translate(0,0)"/>
<path d="" fill="#FF55AA" transform="translate(0,0)"/>
<path d="" fill="#FF00FF" transform="translate(0,0)"/>
<path d="" fill="#FF00FF" transform="translate(0,0)"/>
<path d="" fill="#FF7F7F" transform="translate(0,0)"/>
<path d="" fill="#FF7F7F" transform="translate(0,0)"/>
<path d="" fill="#FF00FF" transform="translate(0,0)"/>
<path d="" fill="#FF7F7F" transform="translate(0,0)"/>
<path d="" fill="#FF7F7F" transform="translate(0,0)"/>
<path d="" fill="#FF00FF" transform="translate(0,0)"/>
<path d="" fill="#FF00FF" transform="translate(0,0)"/>
<path d="" fill="#FF00FF" transform="translate(0,0)"/>
<path d="" fill="#FF7F7F" transform="translate(0,0)"/>
<path d="" fill="#FF00FF" transform="translate(0,0)"/>
<path d="" fill="#FF00FF" transform="translate(0,0)"/>
<path d="" fill="#FF00FF" transform="translate(0,0)"/>
<path d="" fill="#FF00FF" transform="translate(0,0)"/>
<path d="" fill="#FF55AA" transform="translate(0,0)"/>
<path d="" fill="#FF7F7F" transform="translate(0,0)"/>
<path d="" fill="#FF00FF" transform="translate(0,0)"/>
<path d="" fill="#FF55AA" transform="translate(0,0)"/>
<path d="" fill="#FF7F7F" transform="translate(0,0)"/>
<path d="" fill="#FF00FF" transform="translate(0,0)"/>
<path d="" fill="#FF00FF" transform="translate(0,0)"/>
<path d="" fill="#FF7F7F" transform="translate(0,0)"/>
<path d="" fill="#FF00FF" transform="translate(0,0)"/>
<path d="" fill="#FF00FF" transform="translate(0,0)"/>
<path d="" fill="#FF00FF" transform="translate(0,0)"/>
<path d="" fill="#FF00FF" transform="translate(0,0)"/>
<path d="" fill="#FF00FF" transform="translate(0,0)"/>
<path d="" fill="#FF00FF" transform="translate(0,0)"/>
<path d="" fill="#FF00FF" transform="translate(0,0)"/>
<path d="" fill="#FF00FF" transform="translate(0,0)"/>
<path d="" fill="#FF7F7F" transform="translate(0,0)"/>
<path d="" fill="#FF7F7F" transform="translate(0,0)"/>
<path d="" fill="#FF00FF" transform="translate(0,0)"/>
<path d="" fill="#FF00FF" transform="translate(0,0)"/>
<path d="" fill="#FF00FF" transform="translate(0,0)"/>
<path d="" fill="#FF7F7F" transform="translate(0,0)"/>
<path d="" fill="#FF7F7F" transform="translate(0,0)"/>
<path d="" fill="#FF00FF" transform="translate(0,0)"/>
<path d="" fill="#FF00FF" transform="translate(0,0)"/>
<path d="" fill="#FF7F7F" transform="translate(0,0)"/>
<path d="" fill="#FF00FF" transform="translate(0,0)"/>
<path d="" fill="#FF00FF" transform="translate(0,0)"/>
<path d="" fill="#FF7F7F" transform="translate(0,0)"/>
<path d="" fill="#FF7F7F" transform="translate(0,0)"/>
<path d="" fill="#FF55AA" transform="translate(0,0)"/>
<path d="" fill="#FF00FF" transform="translate(0,0)"/>
<path d="" fill="#FF55AA" transform="translate(0,0)"/>
<path d="" fill="#FF00FF" transform="translate(0,0)"/>
<path d="" fill="#FF00FF" transform="translate(0,0)"/>
<path d="" fill="#FF7F7F" transform="translate(0,0)"/>
<path d="" fill="#FF00FF" transform="translate(0,0)"/>
<path d="" fill="#FF00FF" transform="translate(0,0)"/>
<path d="" fill="#FF00FF" transform="translate(0,0)"/>
<path d="" fill="#FF7F7F" transform="translate(0,0)"/>
<path d="" fill="#FF00FF" transform="translate(0,0)"/>
<path d="" fill="#FF00FF" transform="translate(0,0)"/>
<path d="" fill="#FF00FF" transform="translate(0,0)"/>
<path d="" fill="#FF7F7F" transform="translate(0,0)"/>
<path d="" fill="#FF00FF" transform="translate(0,0)"/>
<path d="" fill="#FF7F7F" transform="translate(0,0)"/>
<path d="" fill="#FF00FF" transform="translate(0,0)"/>
<path d="" fill="#FF00FF" transform="translate(0,0)"/>
<path d="" fill="#FF00FF" transform="translate(0,0)"/>
<path d="" fill="#FF7F7F" transform="translate(0,0)"/>
<path d="" fill="#FF00FF" transform="translate(0,0)"/>
<path d="" fill="#FF7F7F" transform="translate(0,0)"/>
<path d="" fill="#FF00FF" transform="translate(0,0)"/>
<path d="" fill="#FF00FF" transform="translate(0,0)"/>
<path d="" fill="#FF00FF" transform="translate(0,0)"/>
<path d="" fill="#FF00FF" transform="translate(0,0)"/>
<path d="" fill="#FF7F7F" transform="translate(0,0)"/>
<path d="" fill="#FF00FF" transform="translate(0,0)"/>
<path d="" fill="#FF00FF" transform="translate(0,0)"/>
<path d="" fill="#FF00FF" transform="translate(0,0)"/>
<path d="" fill="#FF00FF" transform="translate(0,0)"/>
<path d="" fill="#FF00FF" transform="translate(0,0)"/>
<path d="" fill="#FF55AA" transform="translate(0,0)"/>
<path d="" fill="#FF00FF" transform="translate(0,0)"/>
<path d="" fill="#FF7F7F" transform="translate(0,0)"/>
<path d="" fill="#FF00FF" transform="translate(0,0)"/>
<path d="" fill="#FF55AA" transform="translate(0,0)"/>
<path d="" fill="#FF55AA" transform="translate(0,0)"/>
<path d="" fill="#FF7F7F" transform="translate(0,0)"/>
<path d="" fill="#FF00FF" transform="translate(0,0)"/>
<path d="" fill="#FF00FF" transform="translate(0,0)"/>
<path d="" fill="#FF7F7F" transform="translate(0,0)"/>
<path d="" fill="#FF7F7F" transform="translate(0,0)"/>
<path d="" fill="#FF00FF" transform="translate(0,0)"/>
<path d="" fill="#FF7F7F" transform="translate(0,0)"/>
<path d="" fill="#FF00FF" transform="translate(0,0)"/>
<path d="" fill="#FF7F7F" transform="translate(0,0)"/>
<path d="" fill="#FE6D91" transform="translate(0,0)"/>
<path d="" fill="#FF7F7F" transform="translate(0,0)"/>
<path d="" fill="#FF55AA" transform="translate(0,0)"/>
<path d="" fill="#FF00FF" transform="translate(0,0)"/>
<path d="" fill="#FF00FF" transform="translate(0,0)"/>
<path d="" fill="#FF00FF" transform="translate(0,0)"/>
<path d="" fill="#FF7F7F" transform="translate(0,0)"/>
<path d="" fill="#FF7F7F" transform="translate(0,0)"/>
<path d="" fill="#FF7F7F" transform="translate(0,0)"/>
<path d="" fill="#FF55AA" transform="translate(0,0)"/>
<path d="" fill="#FF00FF" transform="translate(0,0)"/>
<path d="" fill="#FF7F7F" transform="translate(0,0)"/>
<path d="" fill="#FF00FF" transform="translate(0,0)"/>
<path d="" fill="#FF55AA" transform="translate(0,0)"/>
<path d="" fill="#FF00FF" transform="translate(0,0)"/>
<path d="" fill="#FF00FF" transform="translate(0,0)"/>
<path d="" fill="#FF55AA" transform="translate(0,0)"/>
<path d="" fill="#FF00FF" transform="translate(0,0)"/>
<path d="" fill="#FF00FF" transform="translate(0,0)"/>
<path d="" fill="#FF00FF" transform="translate(0,0)"/>
<path d="" fill="#FF55AA" transform="translate(0,0)"/>
<path d="" fill="#FF00FF" transform="translate(0,0)"/>
<path d="" fill="#FF00FF" transform="translate(0,0)"/>
<path d="" fill="#FF7F7F" transform="translate(0,0)"/>
<path d="" fill="#FF7F7F" transform="translate(0,0)"/>
<path d="" fill="#FF00FF" transform="translate(0,0)"/>
<path d="" fill="#FF55AA" transform="translate(0,0)"/>
<path d="" fill="#FF00FF" transform="translate(0,0)"/>
<path d="" fill="#FF7F7F" transform="translate(0,0)"/>
<path d="" fill="#FF00FF" transform="translate(0,0)"/>
<path d="" fill="#FF00FF" transform="translate(0,0)"/>
<path d="" fill="#FF7F7F" transform="translate(0,0)"/>
<path d="" fill="#FF00FF" transform="translate(0,0)"/>
<path d="" fill="#FF00FF" transform="translate(0,0)"/>
<path d="" fill="#FF00FF" transform="translate(0,0)"/>
<path d="" fill="#FF55AA" transform="translate(0,0)"/>
<path d="" fill="#FF00FF" transform="translate(0,0)"/>
<path d="" fill="#FF7F7F" transform="translate(0,0)"/>
<path d="" fill="#FF00FF" transform="translate(0,0)"/>
<path d="" fill="#FF00FF" transform="translate(0,0)"/>
<path d="" fill="#FF7F7F" transform="translate(0,0)"/>
<path d="" fill="#FF00FF" transform="translate(0,0)"/>
<path d="" fill="#FF00FF" transform="translate(0,0)"/>
<path d="" fill="#FF7F7F" transform="translate(0,0)"/>
<path d="" fill="#FF7F7F" transform="translate(0,0)"/>
<path d="" fill="#FF7F7F" transform="translate(0,0)"/>
<path d="" fill="#FF55AA" transform="translate(0,0)"/>
<path d="" fill="#FF55AA" transform="translate(0,0)"/>
<path d="" fill="#FF00FF" transform="translate(0,0)"/>
<path d="" fill="#FF00FF" transform="translate(0,0)"/>
<path d="" fill="#FF00FF" transform="translate(0,0)"/>
<path d="" fill="#FF00FF" transform="translate(0,0)"/>
<path d="" fill="#FF00FF" transform="translate(0,0)"/>
<path d="" fill="#FF00FF" transform="translate(0,0)"/>
<path d="" fill="#FF7F7F" transform="translate(0,0)"/>
<path d="" fill="#FF7F7F" transform="translate(0,0)"/>
<path d="" fill="#FF00FF" transform="translate(0,0)"/>
<path d="" fill="#FF00FF" transform="translate(0,0)"/>
<path d="" fill="#FF00FF" transform="translate(0,0)"/>
<path d="" fill="#FF00FF" transform="translate(0,0)"/>
</svg>
